# xmcd
#
# Track frame offsets:
#	225
#	18888
#	32608
#	41822
#	55681
#	70581
#	84530
#	100009
#	117702
#	130001
#	145714
#	162762
#	176147
#	190391
#
# Disc length: 2765 seconds
#
# Revision: 0
# Processed by: cddbd v1.4PL0 Copyright (c) Steve Scherf et al.
# Submitted via: audiograbber 1.81.02
#
DISCID=b70aca0e
DTITLE=gh - Kult Schlager cd3
DYEAR=1900
DGENRE=
TTITLE0=Adam and Eve - wenn die Sonne erwacht in den Bergen
TTITLE1=Bibi Johns - Bella Bimba
TTITLE2=Ralf Paulsen - Tänen in deinen Augen
TTITLE3=Peggy March - einmal verliebt, immer verliebt
TTITLE4=Tony - jetzt geht die Party richtig los
TTITLE5=Geier Sturzflug - Bruttosozialprodukt
TTITLE6=Costa Cordalis - Shangri-La
TTITLE7=Tina Rainford - Silverbird
TTITLE8=Peter Beil - Fremde in der Nacht
TTITLE9=Marion Maerz - es war nur der Sommerwind
TTITLE10=Michael Heltau - Adieu, mein kleiner Gardeoffizier
TTITLE11=Cindy and Bert - ich komm' bald wieder
TTITLE12=Gottlieb Wendehals - Hände hoch und dann winke, winke
TTITLE13=Johnny Hill - Geisterreiter
EXTD=
EXTT0=
EXTT1=
EXTT2=
EXTT3=
EXTT4=
EXTT5=
EXTT6=
EXTT7=
EXTT8=
EXTT9=
EXTT10=
EXTT11=
EXTT12=
EXTT13=
PLAYORDER=
